<svg width="32" height="32" viewBox="0 0 32 32" fill="none" xmlns="http://www.w3.org/2000/svg">
<path d="M30 0C31.1046 0 32 0.895431 32 2V30C32 31.1046 31.1046 32 30 32H18.7246V20.1094H23.1631L23.999 14.3359H18.7246V10.0498L18.7256 10.0488C18.7256 9.02464 19.5525 8.19349 20.5713 8.19336H24V3.2002H18.7529C18.7434 3.20022 18.7351 3.20312 18.7256 3.20312V3.2002C15.4878 3.20022 12.8643 5.83849 12.8643 9.0918V14.3359H8V20.1094H12.8643V32H2C0.895431 32 0 31.1046 0 30V2C0 0.895431 0.895431 0 2 0H30Z" fill="#B5E53B"/>
</svg>
