<svg width="32" height="32" viewBox="0 0 32 32" fill="none" xmlns="http://www.w3.org/2000/svg">
<path d="M30 0C31.1046 0 32 0.895431 32 2V30C32 31.1046 31.1046 32 30 32H2C0.895431 32 0 31.1046 0 30V2C0 0.895431 0.895431 0 2 0H30ZM10.0059 4.7998C6.69439 4.80002 4.00032 7.49422 4 10.8057V21.7734C4.00024 25.0849 6.69434 27.7791 10.0059 27.7793H21.9941C25.3057 27.7791 27.9998 25.0849 28 21.7734V10.8057C27.9997 7.49422 25.3056 4.80002 21.9941 4.7998H10.0059ZM21.9941 6.91895C24.137 6.91916 25.8805 8.66287 25.8809 10.8057V21.7734C25.8806 23.9163 24.137 25.6599 21.9941 25.6602H10.0059C7.86299 25.6599 6.11938 23.9163 6.11914 21.7734V10.8057C6.11946 8.66287 7.86304 6.91916 10.0059 6.91895H21.9941ZM15.9932 10.7002C12.9124 10.7002 10.4068 13.2055 10.4062 16.2861C10.4062 19.3672 12.9121 21.873 15.9932 21.873C19.0728 21.8729 21.5801 19.3672 21.5801 16.2861C21.5795 13.2056 19.0738 10.7003 15.9932 10.7002ZM15.9932 12.8203C17.9054 12.8204 19.4607 14.3759 19.4609 16.2881C19.4609 18.2005 17.9055 19.7557 15.9932 19.7559C14.0807 19.7559 12.5254 18.2005 12.5254 16.2881C12.5256 14.3758 14.0808 12.8203 15.9932 12.8203ZM22.0996 8.59277C21.269 8.59277 20.5939 9.26805 20.5938 10.0986C20.5941 10.929 21.2691 11.6025 22.0996 11.6025C22.9285 11.6022 23.6032 10.9288 23.6035 10.0986C23.6034 9.26825 22.9299 8.5931 22.0996 8.59277Z" fill="#B5E53B"/>
</svg>
