<svg width="32" height="32" viewBox="0 0 32 32" fill="none" xmlns="http://www.w3.org/2000/svg">
<path d="M30 0C31.1046 0 32 0.895431 32 2V30C32 31.1046 31.1046 32 30 32H2C0.895431 32 0 31.1046 0 30V2C0 0.895431 0.895431 0 2 0H30ZM4.46484 11.7842V28H9.58887V11.7842H4.46484ZM22.167 11.5674C21.1168 11.5674 20.1726 11.7719 19.333 12.1826C18.4935 12.5933 17.8246 13.1512 17.3291 13.8574V11.7383H12.4346V27.7139H17.3291V19.0391C17.3291 17.9707 17.607 17.1399 18.1602 16.5488C18.7133 15.9563 19.4591 15.6602 20.3926 15.6602C21.3259 15.6602 22.0719 15.9579 22.625 16.5488C23.178 17.1399 23.4551 17.9708 23.4551 19.0391V27.7139H28.3213V18.3809C28.3213 16.2621 27.7634 14.5982 26.6465 13.3857C25.5311 12.1735 24.037 11.5674 22.167 11.5674ZM7.04297 4C6.14448 4.00004 5.41058 4.26522 4.84082 4.79395C4.27256 5.32437 3.9873 6.00817 3.9873 6.78711C3.98732 7.56602 4.27106 8.22111 4.84082 8.75C5.41058 9.27868 6.16421 9.54391 7.04297 9.54395C7.92176 9.54387 8.6451 9.27879 9.21484 8.75C9.7831 8.2211 10.0674 7.58573 10.0674 6.78711C10.0674 5.98849 9.78458 5.32284 9.21484 4.79395C8.64661 4.26516 7.94146 4.00007 7.04297 4Z" fill="#B5E53B"/>
</svg>
