<svg width="140" height="36" viewBox="0 0 140 36" fill="none" xmlns="http://www.w3.org/2000/svg">
<path d="M140 0V36H0V0H140ZM3 33H137V3H3V33Z" fill="#F8F8F7"/>
<path d="M117.742 27.616V9.41599H130.43V13.212H122.084V23.82H130.716V27.616H117.742ZM119.848 20.18V16.54H129.286V20.18H119.848Z" fill="#F8F8F7"/>
<path d="M107.881 27.876C106.511 27.876 105.246 27.6507 104.085 27.2C102.941 26.732 101.944 26.082 101.095 25.25C100.263 24.4007 99.6127 23.404 99.1447 22.26C98.6941 21.0987 98.4688 19.8333 98.4688 18.464C98.4688 17.112 98.7027 15.864 99.1707 14.72C99.6561 13.576 100.332 12.5793 101.199 11.73C102.065 10.8807 103.079 10.222 104.241 9.754C105.419 9.286 106.693 9.052 108.063 9.052C108.929 9.052 109.779 9.16467 110.611 9.39C111.443 9.61534 112.214 9.95333 112.925 10.404C113.653 10.8373 114.277 11.366 114.797 11.99L112.067 15.084C111.529 14.4947 110.923 14.0353 110.247 13.706C109.588 13.3767 108.851 13.212 108.037 13.212C107.343 13.212 106.685 13.3333 106.061 13.576C105.454 13.8187 104.925 14.174 104.475 14.642C104.024 15.11 103.669 15.6647 103.409 16.306C103.149 16.9473 103.019 17.6753 103.019 18.49C103.019 19.2873 103.14 20.0153 103.383 20.674C103.643 21.3153 104.007 21.87 104.475 22.338C104.96 22.7887 105.532 23.1353 106.191 23.378C106.867 23.6207 107.612 23.742 108.427 23.742C108.964 23.742 109.475 23.6727 109.961 23.534C110.463 23.378 110.931 23.1613 111.365 22.884C111.798 22.6067 112.171 22.2947 112.483 21.948L114.641 25.38C114.225 25.848 113.653 26.2727 112.925 26.654C112.214 27.0353 111.417 27.3387 110.533 27.564C109.666 27.772 108.782 27.876 107.881 27.876Z" fill="#F8F8F7"/>
<path d="M79.6289 27.616L86.8309 9.41599H90.6009L97.7509 27.616H93.2789L89.8209 18.386C89.6996 18.022 89.5609 17.632 89.4049 17.216C89.2662 16.8 89.1276 16.3667 88.9889 15.916C88.8502 15.4653 88.7202 15.032 88.5989 14.616C88.4776 14.2 88.3736 13.81 88.2869 13.446L89.0409 13.42C88.9369 13.8533 88.8242 14.278 88.7029 14.694C88.5816 15.11 88.4516 15.526 88.3129 15.942C88.1742 16.358 88.0269 16.774 87.8709 17.19C87.7322 17.5887 87.5849 18.0047 87.4289 18.438L83.9969 27.616H79.6289ZM83.0609 24.132L84.4649 20.752H92.7849L94.1889 24.132H83.0609Z" fill="#F8F8F7"/>
<path d="M66.2773 27.616V9.41599H74.1553C75.2993 9.41599 76.322 9.67599 77.2233 10.196C78.1247 10.716 78.8353 11.4267 79.3553 12.328C79.8753 13.212 80.1353 14.226 80.1353 15.37C80.1353 16.5313 79.8753 17.58 79.3553 18.516C78.8353 19.452 78.1247 20.1887 77.2233 20.726C76.322 21.2633 75.2993 21.532 74.1553 21.532H70.7233V27.616H66.2773ZM70.6713 17.606H73.5573C73.9387 17.606 74.2767 17.5193 74.5714 17.346C74.8833 17.1553 75.1347 16.8953 75.3253 16.566C75.516 16.2367 75.6113 15.864 75.6113 15.448C75.6113 15.0147 75.516 14.642 75.3253 14.33C75.1347 14.018 74.8833 13.7753 74.5714 13.602C74.2767 13.4287 73.9387 13.342 73.5573 13.342H70.6713V17.606Z" fill="#F8F8F7"/>
<path d="M55.7324 27.876C53.9297 27.876 52.4044 27.564 51.1564 26.94C49.9257 26.2987 48.8684 25.3973 47.9844 24.236L50.6884 21.194C51.5377 22.3553 52.3957 23.1353 53.2624 23.534C54.129 23.9327 55.0217 24.132 55.9404 24.132C56.4084 24.132 56.8244 24.0713 57.1884 23.95C57.5697 23.8287 57.8644 23.6553 58.0724 23.43C58.2977 23.1873 58.4104 22.9013 58.4104 22.572C58.4104 22.312 58.341 22.078 58.2024 21.87C58.081 21.662 57.9077 21.48 57.6824 21.324C57.457 21.168 57.197 21.0293 56.9024 20.908C56.6077 20.7693 56.2784 20.6567 55.9144 20.57C55.5677 20.4833 55.2124 20.4053 54.8484 20.336C53.843 20.128 52.9677 19.8593 52.2224 19.53C51.4944 19.1833 50.879 18.776 50.3764 18.308C49.891 17.8227 49.527 17.2767 49.2844 16.67C49.0417 16.046 48.9204 15.344 48.9204 14.564C48.9204 13.4547 49.2324 12.484 49.8564 11.652C50.4977 10.82 51.3384 10.17 52.3784 9.702C53.4184 9.234 54.545 9 55.7584 9C57.5264 9 58.9477 9.286 60.0224 9.858C61.1144 10.4127 61.981 11.184 62.6224 12.172L59.8664 14.85C59.329 14.1567 58.7137 13.6367 58.0204 13.29C57.3444 12.9433 56.6337 12.77 55.8884 12.77C55.3857 12.77 54.9437 12.8307 54.5624 12.952C54.181 13.0733 53.8864 13.2553 53.6784 13.498C53.4877 13.7233 53.3924 14.0007 53.3924 14.33C53.3924 14.6073 53.4704 14.8587 53.6264 15.084C53.7997 15.292 54.0337 15.474 54.3284 15.63C54.623 15.786 54.961 15.9247 55.3424 16.046C55.7237 16.15 56.1224 16.2367 56.5384 16.306C57.4917 16.4967 58.3497 16.748 59.1124 17.06C59.8924 17.372 60.5597 17.762 61.1144 18.23C61.669 18.6807 62.0937 19.218 62.3884 19.842C62.7004 20.4487 62.8564 21.1507 62.8564 21.948C62.8564 23.196 62.553 24.262 61.9464 25.146C61.3397 26.03 60.499 26.706 59.4244 27.174C58.3497 27.642 57.119 27.876 55.7324 27.876Z" fill="#F8F8F7"/>
<path d="M29.4922 27.616V9.41599H37.1622C38.4969 9.41599 39.7189 9.64132 40.8282 10.092C41.9375 10.5253 42.8909 11.1493 43.6882 11.964C44.4855 12.7613 45.1009 13.7233 45.5342 14.85C45.9675 15.9593 46.1842 17.1813 46.1842 18.516C46.1842 19.868 45.9675 21.0987 45.5342 22.208C45.1009 23.3173 44.4855 24.2793 43.6882 25.094C42.8909 25.8913 41.9375 26.5153 40.8282 26.966C39.7362 27.3993 38.5142 27.616 37.1622 27.616H29.4922ZM33.9382 24.548L33.3662 23.69H37.0322C37.7429 23.69 38.3842 23.5687 38.9562 23.326C39.5282 23.0833 40.0135 22.7367 40.4122 22.286C40.8282 21.818 41.1402 21.272 41.3482 20.648C41.5735 20.0067 41.6862 19.296 41.6862 18.516C41.6862 17.736 41.5735 17.034 41.3482 16.41C41.1402 15.7687 40.8282 15.2227 40.4122 14.772C40.0135 14.304 39.5282 13.9487 38.9562 13.706C38.3842 13.4633 37.7429 13.342 37.0322 13.342H33.2882L33.9382 12.536V24.548Z" fill="#F8F8F7"/>
<path d="M9 27.616L16.202 9.41599H19.972L27.122 27.616H22.65L19.192 18.386C19.0707 18.022 18.932 17.632 18.776 17.216C18.6373 16.8 18.4987 16.3667 18.36 15.916C18.2213 15.4653 18.0913 15.032 17.97 14.616C17.8487 14.2 17.7447 13.81 17.658 13.446L18.412 13.42C18.308 13.8533 18.1953 14.278 18.074 14.694C17.9527 15.11 17.8227 15.526 17.684 15.942C17.5453 16.358 17.398 16.774 17.242 17.19C17.1033 17.5887 16.956 18.0047 16.8 18.438L13.368 27.616H9ZM12.432 24.132L13.836 20.752H22.156L23.56 24.132H12.432Z" fill="#F8F8F7"/>
</svg>
