<svg width="32" height="32" viewBox="0 0 32 32" fill="none" xmlns="http://www.w3.org/2000/svg">
<path d="M30 0C31.1046 0 32 0.895431 32 2V30C32 31.1046 31.1046 32 30 32H2C0.895431 32 0 31.1046 0 30V2C0 0.895431 0.895431 0 2 0H30ZM16.3945 4C9.99471 4 4.78711 9.2076 4.78711 15.6074C4.78719 17.7552 5.38032 19.8474 6.50195 21.6699L4 27.207L12.0098 26.3545C13.4023 26.9249 14.8762 27.2138 16.3926 27.2139C16.7914 27.2139 17.2009 27.193 17.6113 27.1504C17.9728 27.1117 18.3384 27.0547 18.6973 26.9824C24.0566 25.8994 27.969 21.1432 28 15.6689V15.6074C28 15.259 27.9841 14.9101 27.9531 14.5732L27.9551 14.5713C27.7007 11.6983 26.384 9.03315 24.248 7.06738C22.0989 5.08991 19.3104 4.00005 16.3945 4ZM16.3945 6.34277C21.1807 6.34287 25.2376 10.077 25.6289 14.8438C25.6496 15.0993 25.6611 15.3564 25.6611 15.6094C25.6611 15.6817 25.6595 15.7529 25.6582 15.8291C25.56 20.1029 22.5745 23.733 18.3975 24.6572C18.0787 24.7282 17.7519 24.7816 17.4268 24.8164C17.0886 24.8551 16.7411 24.875 16.3965 24.875C15.1691 24.8749 13.9763 24.6378 12.8496 24.168C12.7245 24.1177 12.6021 24.0633 12.4873 24.0078L12.3193 23.9258L12.3184 23.9238L7.88672 24.3965L9.20996 21.4648L8.94531 21.1094C8.926 21.0836 8.90664 21.0579 8.88477 21.0283C7.73597 19.442 7.12894 17.5678 7.12891 15.6084C7.12891 10.4994 11.2855 6.34277 16.3945 6.34277ZM13.207 10.2744C12.0145 10.2745 11.0416 11.2463 11.04 12.4414C11.0413 17.1567 14.8775 20.9951 19.5928 20.9951C20.7881 20.9938 21.7598 20.0211 21.7598 18.8271C21.7598 18.7021 21.7511 18.5822 21.7305 18.4688C21.6866 18.2132 21.5997 17.9694 21.4707 17.7461C21.4513 17.7138 21.4202 17.693 21.3828 17.6865L18.2422 17.1885C18.2346 17.1872 18.228 17.1865 18.2217 17.1865C18.1921 17.1866 18.1625 17.1972 18.1406 17.2178C17.836 17.4927 17.6166 17.8442 17.5068 18.2354L17.4541 18.4238L17.2715 18.3516C15.6337 17.7062 14.3255 16.3982 13.6826 14.7617L13.6113 14.5791L13.7998 14.5264C14.1908 14.4166 14.5415 14.1971 14.8164 13.8926C14.8409 13.8655 14.8531 13.8294 14.8467 13.792L14.3486 10.6514C14.3435 10.6154 14.3211 10.5848 14.2891 10.5654C14.0658 10.4351 13.8229 10.3483 13.5674 10.3057C13.4512 10.285 13.3297 10.2744 13.207 10.2744Z" fill="#B5E53B"/>
</svg>
